<svg data-name="Layer 1" xmlns="http://www.w3.org/2000/svg" width="49" height="25"><defs><linearGradient id="a" x1="8.22" y1=".17" x2="8.22" y2="24.93" gradientUnits="userSpaceOnUse"><stop offset="0" stop-color="#4babe0"/><stop offset="1" stop-color="#193661"/></linearGradient></defs><path d="M27.22 6.64v5.26h-4.07L19.8 5.28v6.61h-2.87V.18h3.2l4.29 8.85V.18h2.8v5.25m8.79-2.39V.18h-7.48V11.9h7.48V9.04h-4.68V7.47h4.68V4.61h-4.68V3.04h4.68zM44.55.18h-7.48v2.86h2.34v8.86h2.8V3.04h2.34V.18zM12.98 13.2h2.81v11.72h-2.81zm14.24 6.47v5.26h-4.07l-3.35-6.62v6.61h-2.87V13.21h3.2l4.29 8.84v-8.84h2.8v5.25m8.79-2.39v-2.86h-7.48v11.72h2.8V20.5h4.68v-2.87h-4.68v-1.56h4.68zm6.53-2.88a5.88 5.88 0 105.76 5.88 5.82 5.82 0 00-5.76-5.88m0 8.88a3 3 0 113-3 3 3 0 01-3 3" fill="#183661"/><path d="M12.16 24.93l-3.36-.52-2.66-1.11-3.64-3.86L1.24 16l-.58-3.19v-.07l.64-3.28 1.13-2.91 3.76-4.32L8.75.93 9 .84l3-.49h.25l3.51-.18v.1l-.37 2.63-.6 4.23 1 5.63H12l-1.72 5.11 1.09 4.35.72 2.6zm-3.3-.64l3 .46-2.73-2.57zm.4-2.16L12 24.65l-.65-2.37zm-3.17-1.05l2.64 3.19L9 22.1zm.15 2.14l2.18.92L6 21.16zm-2.56-3.33L6.09 23l-.24-2zm-1.07-.51l2.78 2.95-2-2.6-1.8-3.1zM9.17 22l2.1.15-1-4zM6 20.91l3 1-2.29-4.19zm.82-3.3l2.27 4.28 1.11-4zm-3.29 2.06l2.24 1.14L4 16.9zm.53-2.85l1.82 3.94.73-3.16zm-2.62-.74l2 3.44.42-2.76h-.15zm5.33 1.4l3.39.3-2-4.9zm1.44-4.73l2 4.93 1.66-4.93zM4 16.68l2.57.76-1.8-4.53zm.86-3.93l1.81 4.6L8 12.75zm-3.47 3.18l2.42.63-1.3-3.68zm1.22-3.18l1.31 3.73.75-3.73zm-1.8 0l.52 3 1.07-3zm.52-2.89l-.52 2.77H2.4zm2.58-.93l-1.31 3.7h2.09zM6.6 8l-1.77 4.6H8zm3.65-.48l-2.06 5.11h3.73zm4.45-.22l-2.61 5.3h3.56zM1.39 9.67l1.11 2.91L3.83 8.8zm9-2.25L12 12.53l2.63-5.33zm-3.66.47l1.44 4.62 2-5.07zM4 8.74l.78 3.73L6.5 7.94zm-.62-2.48L1.45 9.51l2.41-.85zm-.85.37L1.63 9l1.58-2.7.23-.36 1.8-2.43zM6 4.55L4.05 8.6l2.48-.81zM3.48 6.12L4 8.51l1.93-4zm5.68-2.77L6.72 7.76l3.46-.45zm-3.06 1l.53 3.27L9 3.31zM13 3.18L10.38 7.3l4.26-.23zm-3.7.07l1 4 2.58-4.09zm3.8-.14l1.6 3.79.54-3.9zm-6.94-.63L3.67 5.84 6 4.31zm2.65-1.4L6.23 4.2l2.88-1.05zM6.31 2.3l-.19 1.84 2.49-3zM12 .52l-2.7 2.6L12.89 3zM8.93 1l.29 2.08L11.88.5zm6.68-.57L13.13 3l2.13-.08zm-3.46 0l.85 2.5L15.54.31z" fill="url(#a)"/></svg>