<svg xmlns="http://www.w3.org/2000/svg" width="85.629" height="39.668"><text transform="translate(0 7.001)" font-size="9" font-family="Helvetica" letter-spacing="-.02em"><tspan x="0" y="0">Member of</tspan></text><path d="M24.765 18.935V12.55h-6.536a.983.983 0 00-.5 1.826 13.268 13.268 0 015.2 5.039.983.983 0 001.84-.48m-9.284 5.032v4.172a1.1 1.1 0 001.1 1.1h1.456a3.889 3.889 0 01-1.556 2.694 6.384 6.384 0 01-7.7 0 3.841 3.841 0 01-1.577-3.11V13.648a1.1 1.1 0 00-1.1-1.1H.502v16.5a9.894 9.894 0 003.424 7.489 13.139 13.139 0 008.7 3.132 12.53 12.53 0 008.7-3.132 9.935 9.935 0 003.427-7.489v-5.08zm22.925-.364a4.99 4.99 0 01-6.27 0 4.1 4.1 0 01-1.1-3.023v-7.944h.553a.446.446 0 01.446.446v7.448a3.3 3.3 0 00.816 2.382 3.857 3.857 0 004.83 0 3.3 3.3 0 00.816-2.382v-7.448a.446.446 0 01.446-.446h.57v7.944a4.083 4.083 0 01-1.107 3.023m11.546-10.967h.949v11.575a.357.357 0 01-.158.3.614.614 0 01-.375.117.825.825 0 01-.7-.367L42.61 14.202v10.326h-.949V13.003a.394.394 0 01.158-.325.637.637 0 01.408-.125.908.908 0 01.366.066.635.635 0 01.217.142 2.981 2.981 0 01.183.242l6.962 9.842zm3.73 11.891V13.082a.446.446 0 01.446-.446h.553v11.445a.446.446 0 01-.446.446zm11.491-11.891v.487a.446.446 0 01-.446.446h-3.347v10.958h-1V13.569h-3.352a.446.446 0 01-.446-.446v-.487zm8.844.933h-6.146v4.413h5.613v.933h-5.613v4.68h6.029v.933h-7.028V13.202a.512.512 0 01.175-.425.654.654 0 01.425-.142h6.545zm3.082 10.026h2.931a4.279 4.279 0 003.264-1.39 5.162 5.162 0 001.3-3.672 5.017 5.017 0 00-1.3-3.581 4.271 4.271 0 00-3.248-1.382h-2.948zm-1 .933V13.202a.514.514 0 01.175-.424.652.652 0 01.425-.142h3.381a5.189 5.189 0 013.981 1.691 5.954 5.954 0 011.565 4.205 6.089 6.089 0 01-1.565 4.305 5.189 5.189 0 01-3.981 1.69zM35.106 39.656a5.087 5.087 0 01-3.989-1.666 6.32 6.32 0 01-1.491-4.38 6.4 6.4 0 011.59-4.53 5.426 5.426 0 014.172-1.715 5.308 5.308 0 012.906.758 4.19 4.19 0 011.674 1.89l-.9.416a3.349 3.349 0 00-1.408-1.557 4.847 4.847 0 00-5.712.841 5.519 5.519 0 00-1.291 3.864 5.459 5.459 0 001.232 3.756 4.073 4.073 0 003.2 1.391 4.266 4.266 0 003.1-1.216 4.431 4.431 0 001.282-3.247h-4.08v-.916h5.08v.8a5.29 5.29 0 01-1.557 4.047 5.347 5.347 0 01-3.806 1.465m8.29-11.142v5.046h2.515a3.238 3.238 0 002.182-.65 2.354 2.354 0 00.75-1.881 2.38 2.38 0 00-.724-1.857 3.033 3.033 0 00-2.107-.658zm5.182 10.752l-3.066-4.807h-2.115v5.013h-1V28.148a.553.553 0 01.158-.408.532.532 0 01.391-.158h3.214a3.811 3.811 0 012.756.924 3.409 3.409 0 01.958 2.573 3.188 3.188 0 01-.841 2.307 3.728 3.728 0 01-2.374 1.041l3.347 5.046h-1.054a.445.445 0 01-.376-.206m8.143-.561a4.15 4.15 0 003.248-1.4 5.469 5.469 0 001.249-3.781 5.528 5.528 0 00-1.249-3.806 4.14 4.14 0 00-3.248-1.407 4.2 4.2 0 00-3.289 1.407 5.5 5.5 0 00-1.258 3.806 5.444 5.444 0 001.258 3.781 4.212 4.212 0 003.289 1.4m0 .949a5.217 5.217 0 01-4.038-1.682 7.211 7.211 0 010-8.91 5.193 5.193 0 014.038-1.7 5.123 5.123 0 014.005 1.7 7.261 7.261 0 010 8.9 5.135 5.135 0 01-4.005 1.691m14.831-1.105a4.991 4.991 0 01-6.27 0 4.1 4.1 0 01-1.1-3.023v-7.944h.553a.446.446 0 01.446.446v7.448a3.3 3.3 0 00.816 2.382 3.859 3.859 0 004.83 0 3.3 3.3 0 00.816-2.382v-7.448a.446.446 0 01.446-.446h.57v7.944a4.084 4.084 0 01-1.108 3.023m6.837-4.505q2.914 0 2.915-2.814a2.655 2.655 0 00-.733-2.015 3.048 3.048 0 00-2.182-.7h-2.581v5.529zm.067-6.462a3.894 3.894 0 012.889 1 4.173 4.173 0 01-.033 5.438 4.146 4.146 0 01-2.94.958h-2.564v4.5h-1v-11.33a.552.552 0 01.158-.408.532.532 0 01.392-.158z"/></svg>